<?xml version="1.0" encoding="UTF-8"?>
<svg id="a" data-name="Layer_1" xmlns="http://www.w3.org/2000/svg" viewBox="0 0 72 72">
  <path d="M54,36c0,9.9414-8.0586,18-18,18s-18-8.0586-18-18,8.0586-18,18-18,18,8.0586,18,18"/>
  <path d="M36,0c1.6562,0,3,1.6562,3,3v6c0,1.6562-1.3438,3-3,3s-3-1.6562-3-3V3c0-1.6562,1.3438-3,3-3Z"/>
  <path d="M36,60c1.6562,0,3,1.6562,3,3v6c0,1.6562-1.3438,3-3,3s-3-1.6562-3-3v-6c0-1.6562,1.3438-3,3-3Z"/>
  <path d="M10.551,10.547c1.1719-1.1719,3.293-.9492,4.2422,0l4.2422,4.2422c1.1719,1.1719,1.1719,3.0703,0,4.2422s-3.293.9492-4.2422,0l-4.2422-4.2422c-1.1719-1.1719-1.1719-3.0703,0-4.2422Z"/>
  <path d="M52.965,52.969c1.1719-1.1719,3.293-.9492,4.2422,0l4.2422,4.2422c1.1719,1.1719,1.1719,3.0703,0,4.2422s-3.293.9492-4.2422,0l-4.2422-4.2422c-1.1719-1.1719-1.1719-3.0703,0-4.2422Z"/>
  <path d="M0,36c0-1.6562,1.6562-3,3-3h6c1.6562,0,3,1.3438,3,3s-1.6562,3-3,3H3c-1.6562,0-3-1.3438-3-3Z"/>
  <path d="M60,36c0-1.6562,1.6562-3,3-3h6c1.6562,0,3,1.3438,3,3s-1.6562,3-3,3h-6c-1.6562,0-3-1.3438-3-3Z"/>
  <path d="M10.543,61.453c-1.1719-1.1719-.9492-3.293,0-4.2422l4.2422-4.2422c1.1719-1.1719,3.0703-1.1719,4.2422,0s.9492,3.293,0,4.2422l-4.2422,4.2422c-1.1719,1.1719-3.0703,1.1719-4.2422,0Z"/>
  <path d="M52.973,19.031c-1.1719-1.1719-.9492-3.293,0-4.2422l4.2422-4.2422c1.1719-1.1719,3.0703-1.1719,4.2422,0s.9492,3.293,0,4.2422l-4.2422,4.2422c-1.1719,1.1719-3.0703,1.1719-4.2422,0Z"/>
</svg>